<svg width="120" height="120" viewBox="0 0 120 120" fill="none" xmlns="http://www.w3.org/2000/svg">
<path d="M87.875 18.75H31.625C26.4475 18.75 22.25 22.9475 22.25 28.125V86.25C22.25 87.2856 23.0894 88.125 24.125 88.125C25.1599 88.125 26 87.2856 26 86.25V28.125C26 25.0188 28.5181 22.5 31.625 22.5H87.875C90.9812 22.5 93.5 25.0188 93.5 28.125V106.875C93.5 109.981 90.9812 112.5 87.875 112.5C84.7681 112.5 82.25 109.981 82.25 106.875V97.5C82.25 95.4287 80.5706 93.75 78.5 93.75H11C8.92871 93.75 7.25 95.4287 7.25 97.5V106.875C7.25 112.052 11.4475 116.25 16.625 116.25H87.875C93.0518 116.25 97.25 112.052 97.25 106.875V28.125C97.25 22.9475 93.0518 18.75 87.875 18.75ZM16.625 112.5C13.5181 112.5 11 109.981 11 106.875V97.5H78.5V106.875C78.5 108.904 79.1577 110.877 80.375 112.5H16.625Z" fill="black"/>
<path d="M78.5 41.25C79.5349 41.25 80.375 40.4106 80.375 39.375C80.375 38.3394 79.5349 37.5 78.5 37.5H48.5C47.4644 37.5 46.625 38.3394 46.625 39.375C46.625 40.4106 47.4644 41.25 48.5 41.25H78.5Z" fill="black"/>
<path d="M37.25 50.625C37.25 51.6606 38.0894 52.5 39.125 52.5H78.5C79.5349 52.5 80.375 51.6606 80.375 50.625C80.375 49.5894 79.5349 48.75 78.5 48.75H39.125C38.0894 48.75 37.25 49.5894 37.25 50.625Z" fill="black"/>
<path d="M39.125 63.75H78.5C79.5349 63.75 80.375 62.9106 80.375 61.875C80.375 60.8394 79.5349 60 78.5 60H39.125C38.0894 60 37.25 60.8394 37.25 61.875C37.25 62.9106 38.0894 63.75 39.125 63.75Z" fill="black"/>
<path d="M39.125 75H78.5C79.5349 75 80.375 74.1606 80.375 73.125C80.375 72.0894 79.5349 71.25 78.5 71.25H39.125C38.0894 71.25 37.25 72.0894 37.25 73.125C37.25 74.1606 38.0894 75 39.125 75Z" fill="black"/>
<path d="M39.125 86.25H71C72.0349 86.25 72.875 85.4106 72.875 84.375C72.875 83.3394 72.0349 82.5 71 82.5H39.125C38.0894 82.5 37.25 83.3394 37.25 84.375C37.25 85.4106 38.0894 86.25 39.125 86.25Z" fill="black"/>
<path d="M102.875 3.75H46.625C41.4475 3.75 37.25 7.94751 37.25 13.125C37.25 14.1606 38.0894 15 39.125 15C40.1599 15 41 14.1606 41 13.125C41 10.0188 43.5181 7.5 46.625 7.5H102.875C105.981 7.5 108.5 10.0188 108.5 13.125V91.875C108.5 94.9812 105.981 97.5 102.875 97.5C101.839 97.5 101 98.3394 101 99.375C101 100.411 101.839 101.25 102.875 101.25C108.052 101.25 112.25 97.0525 112.25 91.875V13.125C112.25 7.94751 108.052 3.75 102.875 3.75Z" fill="black"/>
</svg>
