<svg width="120" height="104" viewBox="0 0 120 104" fill="none" xmlns="http://www.w3.org/2000/svg">
<path d="M114.494 10.3682L93.6107 1.668C91.3199 0.713862 88.6926 0.714097 86.402 1.66824L76.3755 5.84457C75.4792 6.21816 75.0552 7.24707 75.4286 8.14331C75.802 9.03957 76.8309 9.46378 77.7273 9.09019L87.7539 4.91363C89.1848 4.31738 90.827 4.31714 92.2591 4.91339L113.141 13.6132C115.172 14.4604 116.485 16.3657 116.485 18.4664V93.6422C116.485 96.5655 113.974 98.9437 110.888 98.9437H108.038C107.067 98.9437 106.28 99.7305 106.28 100.702C106.28 101.673 107.067 102.459 108.038 102.459H110.888C115.913 102.459 120.001 98.504 120.001 93.6422V18.4664C120.001 14.9423 117.839 11.7637 114.494 10.3682Z" fill="black"/>
<path d="M109 98.9449H70.8398C72.056 97.5626 72.7219 95.8088 72.7219 93.9528C72.7219 92.1005 72.0513 90.4029 70.9418 89.0867C71.6414 88.7297 72.2892 88.2626 72.8611 87.691C74.2889 86.2629 75.075 84.3642 75.075 82.3442C75.075 80.4185 74.3503 78.6598 73.1609 77.3234C73.7498 76.9899 74.2983 76.5764 74.7895 76.0847C76.2173 74.6571 77.0037 72.7585 77.0037 70.7379C77.0037 68.8179 76.2834 67.0636 75.1008 65.7284C75.6996 65.3923 76.2574 64.9737 76.7576 64.4747C78.1844 63.0445 78.9701 61.1463 78.9701 59.1291C78.9701 54.9586 75.5782 51.5658 71.4089 51.5658H63.5269V18.4674C63.5269 16.3664 64.8396 14.4612 66.8698 13.6144L70.0669 12.2831C70.9631 11.91 71.3871 10.8811 71.014 9.98463C70.6406 9.08838 69.6117 8.66369 68.7155 9.03752L65.5172 10.3692C62.1724 11.7645 60.0112 14.9433 60.0112 18.4674V51.566H52.6666C55.1123 43.8373 54.9042 35.7713 52.05 26.4096C51.6164 24.9919 50.7539 23.7776 49.5551 22.898C48.3633 22.0238 46.9509 21.5613 45.4704 21.5613C43.563 21.5613 41.7895 22.3231 40.4761 23.7061C39.1634 25.0889 38.4949 26.8992 38.5938 28.8033C39.1434 39.3729 34.268 43.0109 27.5201 48.0464C25.2984 49.7042 22.8703 51.5173 20.4839 53.7408V51.4369C20.4839 50.4659 19.6971 49.6791 18.7261 49.6791H1.75781C0.786797 49.6791 0 50.4659 0 51.4369V101.291C0 102.262 0.786797 103.049 1.75781 103.049H18.7266C19.6976 103.049 20.4844 102.262 20.4844 101.291V96.8686C23.823 97.1862 26.2615 97.8516 28.6305 99.6673C30.1859 100.859 32.1031 101.516 34.0289 101.516H65.0299C66.2965 102.133 67.7006 102.46 69.124 102.46H109C109.971 102.46 109 101.472 109 100.501C109 99.5301 109.971 98.9449 109 98.9449ZM30.7692 96.8768C27.4547 94.3369 23.9123 93.6312 20.4844 93.3352V65.1506C20.4844 64.1796 19.6971 63.1753 18.7261 63.1753C17.7551 63.1753 16.9688 71.8388 16.9688 72.8098V99.5332H3.51562V53.1949H16.9688V72.8098C16.9688 73.7808 17.7551 63.1753 18.7261 63.1753C19.6971 63.1753 20.4844 66.1217 20.4844 65.1506V58.7346C23.4248 55.4897 26.5734 53.1401 29.6231 50.8643C36.3752 45.826 42.7526 41.0667 42.1055 28.621C42.057 27.6893 42.3839 26.8036 43.0266 26.127C43.6692 25.4499 44.5373 25.0772 45.4711 25.0772C46.1984 25.0772 46.8914 25.3038 47.4757 25.7327C48.0591 26.1607 48.4784 26.7504 48.6884 27.4369C51.5953 36.9724 51.5498 44.9951 48.5452 52.6847C48.3338 53.2256 48.4034 53.836 48.7308 54.3157C49.0582 54.7955 49.6015 55.0824 50.1823 55.0824H71.4094C73.6402 55.0824 75.4549 56.8981 75.4549 59.13C75.4549 60.2093 75.0338 61.2258 74.2718 61.9896C73.5054 62.7542 72.4891 63.1753 71.4094 63.1753H64.1883C63.2173 63.1753 62.4305 63.9621 62.4305 64.9331C62.4305 65.9042 63.2173 66.691 64.1883 66.691H69.443C71.6735 66.691 73.4883 68.5067 73.4883 70.7388C73.4883 71.82 73.0678 72.836 72.3037 73.5999C71.5402 74.3637 70.5241 74.7842 69.443 74.7842H64.1883C63.2173 74.7842 62.4305 75.571 62.4305 76.542C62.4305 77.513 63.2173 78.2998 64.1883 78.2998H67.5138C69.7446 78.2998 71.5594 80.1145 71.5594 82.3451C71.5594 83.426 71.1387 84.4423 70.3751 85.2061C69.6096 85.9716 68.5934 86.3928 67.5138 86.3928H65.1607H62.2591C61.2881 86.3928 60.5013 87.1796 60.5013 88.1506C60.5013 89.1216 61.2881 89.9084 62.2591 89.9084H65.1607C67.3915 89.9084 69.2063 91.7231 69.2063 93.9537C69.2063 95.0346 68.7851 96.0518 68.0234 96.8154C67.3095 97.5277 66.1816 97.9821 65.3377 97.9971C65.2793 97.9981 34.0289 98.0014 34.0289 98.0014C32.872 98.0002 31.7142 97.6013 30.7692 96.8768Z" fill="black"/>
<path d="M96.3509 19.2491C96.3509 15.5553 93.3458 12.5502 89.652 12.5502C85.9583 12.5502 82.9531 15.5553 82.9531 19.2491C82.9531 22.9428 85.9583 25.948 89.652 25.948C93.3458 25.948 96.3509 22.9428 96.3509 19.2491ZM86.4687 19.2491C86.4687 17.4938 87.8968 16.0658 89.652 16.0658C91.4073 16.0658 92.8353 17.4938 92.8353 19.2491C92.8353 21.0043 91.4073 22.4324 89.652 22.4324C87.8968 22.4324 86.4687 21.0046 86.4687 19.2491Z" fill="black"/>
<path d="M90.7493 79.2262H87.5967C85.9361 79.2262 84.5852 77.875 84.5852 76.2144C84.5852 75.2434 83.7984 74.4566 82.8274 74.4566C81.8564 74.4566 81.0696 75.2434 81.0696 76.2144C81.0696 79.7528 83.8999 82.6403 87.415 82.7371V86.6272C87.415 87.5983 88.2018 88.3851 89.1729 88.3851C90.1439 88.3851 90.9307 87.5983 90.9307 86.6272V82.7371C94.4461 82.6403 97.2764 79.7528 97.2764 76.2144V73.7809C97.2764 71.5232 95.8338 69.5378 93.6864 68.8398L85.7458 66.2605C85.0516 66.0348 84.5852 65.3931 84.5852 64.6633V61.1788C84.5852 59.8302 85.6823 58.7329 87.0309 58.7329H91.3153C92.6639 58.7329 93.761 59.8302 93.761 61.1788C93.761 62.1498 94.5478 62.9366 95.5188 62.9366C96.4898 62.9366 97.2766 62.1498 97.2766 61.1788C97.2766 57.8917 94.6024 55.2173 91.3153 55.2173H90.9307V51.3318C90.9307 50.3608 90.1439 49.574 89.1729 49.574C88.2018 49.574 87.415 50.3608 87.415 51.3318V55.2173H87.0307C83.7438 55.2173 81.0693 57.8915 81.0693 61.1788V64.6633C81.0693 66.921 82.5119 68.9064 84.6593 69.6041L92.5997 72.1834C93.2941 72.4091 93.7605 73.0511 93.7605 73.7809V76.2144C93.761 77.875 92.4098 79.2262 90.7493 79.2262Z" fill="black"/>
</svg>
