<svg width="88" height="116" viewBox="0 0 88 116" fill="none" xmlns="http://www.w3.org/2000/svg">
<path d="M85.8747 103.077C84.9361 103.077 84.1755 103.838 84.1755 104.776V106.941C84.1755 110.084 81.6185 112.641 78.4756 112.641H74.2915V104.776C74.2915 103.838 73.5309 103.077 72.5923 103.077C71.6536 103.077 70.8931 103.838 70.8931 104.776V112.641H55.9012C58.8102 98.8819 59.0665 84.8919 56.6611 71.012C57.1255 71.1727 56.5317 70.9993 63.3925 72.7629C63.426 72.7715 63.4598 72.779 63.4937 72.7856C75.2546 75.0492 83.7158 85.1389 84.1569 96.8571C84.1914 97.7731 84.1755 102.498 84.1755 104.776C83.8197 109.282 87.5524 104.777 87.5742 104.776C87.5531 103.498 87.5882 97.6671 87.5531 96.7294C87.049 83.3361 77.3582 72.0184 64.1875 69.4585C61.4821 68.7657 58.4024 67.9709 58.1358 67.9097C57.0503 67.66 56.1939 66.9224 55.7725 65.9592L63.221 63.4535C68.8678 61.5537 72.6605 56.2741 72.6584 50.3162C72.6584 50.3047 72.6584 44.6071 72.6584 43.854C73.9061 42.8379 74.7047 41.2909 74.7047 39.5599V31.9696C74.7047 30.2262 73.8939 28.6695 72.6306 27.6539C72.0911 12.3024 59.497 0.0390625 44.0076 0.0390625C28.5184 0.0390625 15.924 12.3024 15.3843 27.6536C14.121 28.6693 13.3102 30.226 13.3102 31.9694V39.5597C13.3102 41.2913 14.1099 42.8394 15.3587 43.8553L15.3567 50.316C15.3547 56.2739 19.1473 61.5535 24.7942 63.4532L32.2426 65.959C31.8212 66.9221 30.9648 67.6598 29.8798 67.9093C29.6274 67.967 27.2829 68.5733 23.8274 69.4583C20.8687 70.0333 12.5901 73.6262 8.69598 77.6036C7.87379 78.0561 7.54583 81.6758 7.99805 82.498C8.45072 83.3205 10.3021 80.4334 11.1243 79.9812C15.498 75.998 21.8935 73.2913 24.5214 72.7856C24.544 72.7813 30.6986 71.2386 31.3543 71.012C28.9489 84.8917 29.2051 98.8819 32.1142 112.641H17.1223V104.776C17.1223 103.838 16.3617 103.077 15.4231 103.077C14.4844 103.077 13.7239 103.838 13.7239 104.776V112.641H9.5397C6.39683 112.641 3.83984 110.084 3.83984 106.941V97.8268C3.83984 91.117 7.49805 83.998 11.1243 79.9812C14.3287 76.7081 11.7695 78.2348 11.0989 77.5783C10.4278 76.9215 9.35233 76.9332 8.69598 77.6036C3.37312 83.0407 0.441406 90.2225 0.441406 97.8268V106.941C0.441406 111.958 4.52293 116.039 9.5397 116.039H78.4759C83.4929 116.039 87.5742 111.958 87.5742 106.941V104.776C87.5739 103.838 86.8134 103.077 85.8747 103.077ZM65.2931 51.3355H61.5924C62.841 49.4032 63.7543 47.3023 64.3051 45.0965C66.4427 45.0958 68.9992 45.0983 69.2584 45.0942L69.2591 47.3875C69.2487 49.5661 67.4742 51.3355 65.2931 51.3355ZM71.3065 31.9696V39.5599C71.3065 40.739 70.3475 41.6982 69.1682 41.6982H64.8574C64.8937 41.2444 64.9188 40.7886 64.9256 40.3298C64.9258 40.3212 64.9258 40.3126 64.9258 40.3042V29.8316H69.1682C70.3475 29.8314 71.3065 30.7904 71.3065 31.9696ZM44.0076 3.4375C57.1482 3.4375 68.006 13.5707 69.1508 26.4329H63.6465C58.871 23.8716 56.7352 19.8474 55.7843 16.8876C55.0577 14.6247 51.9733 14.3245 50.8183 16.4037C47.2247 22.8711 39.9172 26.4329 30.2421 26.4329C26.8498 26.4329 23.0555 26.4329 18.8643 26.4329C20.0092 13.5707 30.8669 3.4375 44.0076 3.4375ZM52.4611 66.8208L53.2042 70.9649C53.6038 73.1936 53.9324 75.4252 54.1902 77.6585C47.7796 80.5589 40.3119 80.5936 33.8245 77.6585C34.0825 75.4252 34.4111 73.1934 34.8105 70.9649L35.5536 66.8208C36.207 64.9232 35.8441 62.7328 35.9268 59.3189C40.9358 61.4162 46.7936 61.5338 52.0875 59.3123C52.1661 62.5341 51.8077 64.9229 52.4611 66.8208ZM51.9078 54.2421C51.0745 54.2421 50.3966 53.5642 50.3966 52.7312C50.3966 51.8981 51.0745 51.2202 51.9078 51.2202H56.5548C57.3963 51.2202 58.066 51.9101 58.066 52.7312C58.066 53.5645 57.3881 54.2421 56.5548 54.2421C55.1721 54.2421 53.462 54.2421 51.9078 54.2421ZM56.5548 47.8215H51.9078C49.2006 47.8215 46.9982 50.024 46.9982 52.7309C46.9982 54.407 47.843 55.889 49.1286 56.7751C43.2039 58.5842 36.4614 57.1815 31.7057 52.4905C29.0868 49.9075 27.3826 46.6371 26.7566 43.0821C26.7541 43.0685 26.7519 43.0547 26.7489 43.0411C26.2931 40.4148 26.569 39.3841 26.4875 29.8314H30.2421C40.5942 29.8314 48.6269 26.1026 53.0438 19.2944C54.2162 22.2068 56.6482 26.3391 61.5276 29.1444C61.4488 39.3905 61.7166 40.4429 61.2743 43.0094C61.0559 43.9439 60.7795 45.9603 59.2593 48.6365C58.4831 48.1222 57.5535 47.8215 56.5548 47.8215ZM16.7086 39.5599V31.9696C16.7086 30.7906 17.6676 29.8314 18.8469 29.8314H23.0893V40.304C23.0893 40.3126 23.0893 40.3212 23.0895 40.3296C23.0965 40.7886 23.1235 41.2442 23.1597 41.698H18.8471C17.6676 41.698 16.7086 40.739 16.7086 39.5599ZM32.5288 62.4699L25.8778 60.2324C21.6157 58.7985 18.7535 54.8139 18.7551 50.3174L18.7569 45.0944C19.0318 45.0987 20.6202 45.0955 23.7125 45.0967C24.6315 48.7901 26.545 52.1738 29.3197 54.9105C30.3132 55.8903 31.3885 56.7585 32.5292 57.51L32.5288 62.4699ZM52.4275 112.641H35.5876C33.3192 102.251 32.6155 91.721 33.4763 81.2083C40.0382 83.8636 47.6842 83.9821 54.5389 81.2083C55.3996 91.721 54.6959 102.251 52.4275 112.641ZM55.4864 57.6405H56.5548C58.5488 57.6405 60.2675 56.4452 61.0355 54.734H65.2931C66.4885 54.734 67.6172 54.446 68.6165 53.9383C67.544 56.8501 65.2029 59.2009 62.1375 60.2322L55.4866 62.4697L55.4864 57.6405Z" fill="black"/>
<path d="M73.7871 87.1254H66.927C64.2706 87.1254 62.1094 89.2865 62.1094 91.943V93.8146C62.1094 96.471 64.2706 98.6322 66.927 98.6322H73.7871C76.4435 98.6322 78.6047 96.471 78.6047 93.8146V91.943C78.6047 89.2865 76.4435 87.1254 73.7871 87.1254ZM75.2063 93.8144C75.2063 94.5969 74.5696 95.2336 73.7871 95.2336H66.927C66.1445 95.2336 65.5078 94.5969 65.5078 93.8144V91.9428C65.5078 91.1602 66.1445 90.5236 66.927 90.5236H73.7871C74.5696 90.5236 75.2063 91.1602 75.2063 91.9428V93.8144Z" fill="black"/>
</svg>
