<svg width="120" height="120" viewBox="0 0 120 120" fill="none" xmlns="http://www.w3.org/2000/svg">
<path d="M83.6715 36.8633C83.2365 36.8635 82.8193 37.0365 82.5118 37.3442L53.9387 65.9174L37.495 49.4727C37.1816 49.1762 36.7666 49.011 36.3353 49.011C35.9039 49.011 35.4889 49.1762 35.1756 49.4727L28.5465 56.1027C28.2391 56.4103 28.0664 56.8274 28.0664 57.2624C28.0664 57.6973 28.2391 58.1144 28.5465 58.422L52.7818 82.6555C52.934 82.8079 53.1148 82.9289 53.3138 83.0114C53.5128 83.0939 53.7261 83.1364 53.9415 83.1364C54.1569 83.1364 54.3703 83.0939 54.5692 83.0114C54.7682 82.9289 54.949 82.8079 55.1012 82.6555L91.4603 46.2936C91.7678 45.9858 91.9405 45.5685 91.9405 45.1334C91.9405 44.6984 91.7678 44.2811 91.4603 43.9733L84.8312 37.3442C84.5237 37.0365 84.1066 36.8635 83.6715 36.8633ZM53.9387 79.1755L32.0265 57.2624L36.339 52.9499L52.7818 69.3964C52.934 69.5489 53.1148 69.6698 53.3138 69.7523C53.5128 69.8348 53.7261 69.8773 53.9415 69.8773C54.1569 69.8773 54.3703 69.8348 54.5692 69.7523C54.7682 69.6698 54.949 69.5489 55.1012 69.3964L83.6715 40.8242L87.984 45.1367L53.9387 79.1755Z" fill="black"/>
<path d="M60.0013 15.3127C51.1627 15.3127 42.5226 17.9337 35.1735 22.8442C27.8245 27.7546 22.0966 34.7341 18.7142 42.8999C15.3319 51.0657 14.4469 60.0511 16.1712 68.7198C17.8955 77.3886 22.1517 85.3514 28.4016 91.6012C34.6514 97.8511 42.6142 102.107 51.2829 103.832C59.9517 105.556 68.9371 104.671 77.1029 101.289C85.2687 97.9061 92.2481 92.1783 97.1586 84.8292C102.069 77.4802 104.69 68.8401 104.69 60.0015C104.677 48.1534 99.9641 36.7944 91.5862 28.4166C83.2083 20.0387 71.8493 15.3261 60.0013 15.3127ZM60.0013 101.409C51.8116 101.409 43.8059 98.9805 36.9965 94.4306C30.1871 89.8807 24.8798 83.4137 21.7457 75.8475C18.6117 68.2812 17.7917 59.9556 19.3894 51.9233C20.9871 43.891 24.9308 36.5129 30.7217 30.722C36.5127 24.931 43.8908 20.9873 51.9231 19.3896C59.9553 17.7919 68.281 18.6119 75.8472 21.746C83.4135 24.88 89.8804 30.1873 94.4304 36.9967C98.9803 43.8062 101.409 51.8119 101.409 60.0015C101.396 70.9796 97.0298 81.5046 89.2671 89.2673C81.5044 97.03 70.9794 101.397 60.0013 101.409Z" fill="black"/>
<path d="M118.153 65.2637C119.357 63.7745 120.015 61.917 120.015 60.0015C120.015 58.0861 119.357 56.2286 118.153 54.7393L115.464 51.3831C114.949 50.739 114.596 49.9803 114.435 49.1711C114.275 48.3619 114.312 47.526 114.542 46.734L115.742 42.6175C116.269 40.7767 116.157 38.8118 115.424 37.043C114.691 35.2742 113.38 33.806 111.705 32.8778L107.949 30.8153C107.225 30.419 106.608 29.8543 106.148 29.169C105.689 28.4836 105.401 27.6977 105.31 26.8778L104.841 22.6075C104.641 20.7016 103.792 18.9223 102.437 17.5673C101.082 16.2122 99.3023 15.3634 97.3964 15.1628L93.1261 14.694C92.3062 14.6028 91.5202 14.3155 90.8349 13.8563C90.1495 13.3971 89.5848 12.7795 89.1886 12.0559L87.1261 8.29841C86.2121 6.61005 84.7453 5.2874 82.9718 4.55237C81.1982 3.81733 79.2258 3.71464 77.3855 4.26153L73.2698 5.46059C72.4774 5.69086 71.6413 5.72725 70.8318 5.5667C70.0224 5.40616 69.2634 5.05337 68.6189 4.53809L65.2626 1.84934C63.7732 0.64518 61.9158 -0.0117188 60.0005 -0.0117188C58.0851 -0.0117188 56.2277 0.64518 54.7383 1.84934L51.382 4.53809C50.7373 5.05229 49.9786 5.40434 49.1696 5.56469C48.3607 5.72504 47.5251 5.68902 46.733 5.45966L42.6164 4.25965C40.7757 3.73233 38.8106 3.84438 37.0417 4.57753C35.2729 5.31068 33.8047 6.62165 32.8767 8.29653L30.8142 12.0531C30.4179 12.7767 29.8532 13.3943 29.1679 13.8537C28.4825 14.313 27.6967 14.6006 26.8767 14.6922L22.6064 15.1609C20.7005 15.3615 18.9213 16.2103 17.5662 17.5654C16.2111 18.9205 15.3623 20.6997 15.1617 22.6056L14.693 26.8759C14.6018 27.6958 14.3144 28.4817 13.8552 29.1671C13.396 29.8525 12.7785 30.4172 12.0548 30.8134L8.29733 32.8759C6.60935 33.7903 5.28702 35.2571 4.55204 37.0305C3.81706 38.804 3.71412 40.7762 4.26046 42.6165L5.4614 46.7312C5.69166 47.5236 5.72805 48.3598 5.56751 49.1692C5.40696 49.9787 5.05418 50.7376 4.5389 51.3822L1.85015 54.7384C0.645494 56.2276 -0.0117188 58.0851 -0.0117187 60.0006C-0.0117188 61.9161 0.645494 63.7735 1.85015 65.2628L4.5389 68.619C5.05428 69.2631 5.40707 70.0218 5.56747 70.831C5.72787 71.6402 5.69117 72.4761 5.46046 73.2681L4.26046 77.3847C3.73309 79.2253 3.84491 81.1903 4.57768 82.9593C5.31046 84.7282 6.62096 86.1967 8.29546 87.1253L12.052 89.1878C12.7757 89.5841 13.3933 90.1488 13.8526 90.8341C14.312 91.5195 14.5995 92.3053 14.6911 93.1253L15.1598 97.3956C15.3604 99.3015 16.2092 101.081 17.5643 102.436C18.9194 103.791 20.6986 104.64 22.6045 104.84L26.8748 105.309C27.6948 105.4 28.4807 105.688 29.166 106.147C29.8514 106.606 30.4161 107.224 30.8123 107.947L32.8748 111.705C33.7888 113.393 35.2556 114.716 37.0292 115.451C38.8027 116.186 40.7751 116.288 42.6155 115.742L46.7301 114.541C47.5226 114.311 48.3586 114.275 49.1679 114.436C49.9772 114.596 50.7362 114.948 51.3811 115.463L54.7373 118.152C56.2266 119.356 58.0841 120.014 59.9995 120.014C61.915 120.014 63.7725 119.356 65.2617 118.152L68.618 115.463C69.2622 114.948 70.0209 114.595 70.83 114.435C71.6392 114.274 72.475 114.311 73.267 114.542L77.3836 115.742C79.2238 116.288 81.1958 116.185 82.9691 115.45C84.7424 114.715 86.2091 113.393 87.1233 111.705L89.1858 107.948C89.5821 107.224 90.1468 106.607 90.8321 106.148C91.5175 105.688 92.3033 105.401 93.1233 105.309L97.3936 104.84C99.2995 104.64 101.079 103.791 102.434 102.436C103.789 101.081 104.638 99.3015 104.838 97.3956L105.307 93.1253C105.398 92.3054 105.686 91.5194 106.145 90.8341C106.604 90.1487 107.222 89.584 107.945 89.1878L111.703 87.1253C113.391 86.2109 114.713 84.7441 115.448 82.9706C116.183 81.1972 116.286 79.225 115.74 77.3847L114.539 73.27C114.308 72.4776 114.272 71.6414 114.432 70.832C114.593 70.0225 114.946 69.2636 115.461 68.619L118.153 65.2637ZM112.903 66.5697C112.058 67.6255 111.48 68.869 111.217 70.1952C110.954 71.5214 111.014 72.8914 111.391 74.1897L112.593 78.3043C112.926 79.4272 112.863 80.6305 112.415 81.7125C111.966 82.7945 111.159 83.6894 110.13 84.2472L106.371 86.3097C105.185 86.9599 104.172 87.8866 103.42 89.0112C102.668 90.1358 102.197 91.4251 102.049 92.77L101.58 97.0403C101.457 98.2031 100.939 99.2885 100.112 100.115C99.2855 100.942 98.2001 101.46 97.0373 101.583L92.7661 102.052C91.4214 102.201 90.1323 102.671 89.0079 103.424C87.8836 104.176 86.957 105.189 86.3067 106.375L84.2442 110.132C83.6861 111.162 82.7913 111.968 81.7096 112.417C80.628 112.865 79.4251 112.929 78.3023 112.596L74.1867 111.395C72.8888 111.017 71.5188 110.957 70.1927 111.22C68.8665 111.483 67.6232 112.061 66.5676 112.906L63.2114 115.594C62.3025 116.33 61.1687 116.731 59.9995 116.731C58.8303 116.731 57.6965 116.33 56.7876 115.594L53.4314 112.906C52.3756 112.061 51.1321 111.483 49.8059 111.22C48.4797 110.957 47.1096 111.017 45.8114 111.394L41.6976 112.595C40.5747 112.927 39.3718 112.864 38.2901 112.415C37.2084 111.967 36.3134 111.161 35.7548 110.132L33.6923 106.373C33.042 105.187 32.1154 104.174 30.9908 103.422C29.8662 102.67 28.5769 102.199 27.232 102.051L22.9617 101.582C21.7989 101.459 20.7135 100.941 19.8867 100.114C19.0599 99.2875 18.5417 98.2021 18.4186 97.0394L17.9498 92.7681C17.8011 91.4234 17.3305 90.1343 16.5781 89.01C15.8256 87.8856 14.8134 86.959 13.627 86.3087L9.86952 84.2462C8.84787 83.6799 8.04821 82.7842 7.60095 81.7052C7.1537 80.6261 7.08523 79.4273 7.40671 78.3043L8.60765 74.1887C8.98556 72.8907 9.04561 71.5209 8.78275 70.1948C8.51988 68.8687 7.94181 67.6253 7.09733 66.5697L4.40671 63.2134C3.6715 62.3044 3.27041 61.1707 3.27041 60.0015C3.27041 58.8324 3.6715 57.6987 4.40671 56.7897L7.09546 53.4334C7.93989 52.3775 8.518 51.134 8.78102 49.8078C9.04404 48.4816 8.98425 47.1116 8.60671 45.8134L7.40671 41.6987C7.07356 40.5758 7.13654 39.3725 7.5851 38.2906C8.03366 37.2086 8.84053 36.3137 9.87046 35.7559L13.6289 33.6934C14.8154 33.0431 15.8277 32.1164 16.58 30.9919C17.3323 29.8673 17.8025 28.578 17.9508 27.2331L18.4195 22.9628C18.5435 21.7995 19.0629 20.714 19.891 19.8876C20.7191 19.0612 21.8057 18.544 22.9692 18.4225L27.2405 17.9537C28.5852 17.8049 29.8742 17.3344 30.9986 16.582C32.123 15.8295 33.0495 14.8173 33.6998 13.6309L35.7623 9.87341C36.3284 8.85309 37.2229 8.05419 38.3004 7.60656C39.378 7.15893 40.5752 7.08887 41.6976 7.40778L45.8133 8.60872C47.1112 8.98679 48.4811 9.04692 49.8073 8.78405C51.1334 8.52118 52.3767 7.94302 53.4323 7.09841L56.7886 4.40778C57.6975 3.67241 58.8313 3.27121 60.0005 3.27121C61.1696 3.27121 62.3034 3.67241 63.2123 4.40778L66.5686 7.09653C67.6247 7.94047 68.8682 8.51828 70.1943 8.78128C71.5204 9.04428 72.8903 8.98477 74.1886 8.60778L78.3033 7.40778C79.4262 7.07589 80.629 7.13947 81.7107 7.58791C82.7924 8.03635 83.6874 8.84247 84.2461 9.87153L86.3086 13.63C86.9589 14.8165 87.8855 15.8288 89.0101 16.5811C90.1347 17.3334 91.424 17.8036 92.7689 17.9518L97.0392 18.4206C98.202 18.5437 99.2874 19.0619 100.114 19.8887C100.941 20.7155 101.459 21.8009 101.582 22.9637L102.051 27.235C102.2 28.5797 102.67 29.8688 103.423 30.9931C104.175 32.1175 105.188 33.044 106.374 33.6943L110.131 35.7568C111.153 36.3231 111.953 37.2188 112.4 38.2978C112.848 39.3768 112.916 40.5756 112.595 41.6987L111.394 45.8143C111.016 47.1123 110.956 48.4822 111.219 49.8083C111.482 51.1344 112.06 52.3777 112.905 53.4334L115.593 56.7897C116.328 57.6987 116.73 58.8324 116.73 60.0015C116.73 61.1707 116.328 62.3044 115.593 63.2134L112.903 66.5697Z" fill="black"/>
</svg>
