<svg width="120" height="120" viewBox="0 0 120 120" fill="none" xmlns="http://www.w3.org/2000/svg">
<g clip-path="url(#clip0_415_1638)">
<path d="M43.0176 24.701C40.6089 28.9087 38.6387 34.6583 37.28 41.4789C37.0905 42.4311 36.0489 47.8105 37.002 48C37.1173 48.0229 37.8875 51 38.002 51C38.8232 51 40.5622 43.0015 40.7288 42.1656C42.1845 34.8542 44.3387 28.9206 46.959 25.0059C47.2419 24.5829 47.3279 24.0574 47.1943 23.5657C47.0606 23.075 46.7209 22.6658 46.2613 22.4442C45.7816 22.2135 45.3028 21.9608 44.8395 21.6935C41.9657 20.0373 40.7865 18.5148 40.304 17.5278C39.7959 16.4896 39.7968 15.5146 40.3058 14.6311C41.5116 12.5391 44.6454 12.6819 48.6893 15.011C50.4078 16.0016 51.9431 17.1946 53.1296 18.4598C53.6121 18.9744 54.3546 19.1511 55.0174 18.9084C66.6181 14.654 88.556 14.654 100.158 18.9084C100.82 19.1511 101.564 18.9753 102.046 18.4598C103.233 17.1946 104.768 16.0016 106.487 15.011C109.36 13.3558 111.27 13.1013 112.363 13.1763C113.517 13.2578 114.36 13.7467 114.87 14.6311C116.075 16.7231 114.38 19.3625 110.336 21.6926C109.871 21.9608 109.392 22.2144 108.914 22.4442C108.455 22.6658 108.115 23.075 107.981 23.5657C107.847 24.0574 107.933 24.5829 108.216 25.0059C110.289 28.1022 113.002 36.5 115.502 47C115.727 47.9442 115.562 45.7426 116.502 45.5C117.441 45.2556 118.746 45.9393 118.502 45C118.002 40 114.003 27.9108 112.159 24.7001C119.103 20.6708 119.689 15.9531 117.915 12.876C116.818 10.9717 114.934 9.83282 112.61 9.66986C110.305 9.50964 107.656 10.2805 104.731 11.966C103.085 12.9145 101.572 14.0323 100.299 15.2353C88.025 11.1686 67.15 11.1686 54.8765 15.2353C53.603 14.0323 52.0905 12.9145 50.4435 11.966C43.436 7.92761 39.0387 9.78796 37.2599 12.876C36.1622 14.7803 36.1219 16.9813 37.1464 19.0742C38.1544 21.1323 40.1291 23.0247 43.0176 24.701Z" fill="black"/>
<path d="M118.371 44.06C118.207 43.1033 117.3 42.4606 116.342 42.6227C115.385 42.7865 114.742 43.6947 114.906 44.6515C118.5 65.7159 115.815 90.1651 108.793 100.313C108.504 100.728 108.41 101.248 108.533 101.738C108.655 102.229 108.983 102.643 109.432 102.875C109.743 103.036 110.047 103.201 110.335 103.367C114.379 105.698 116.074 108.337 114.869 110.429C114.359 111.314 113.516 111.803 112.362 111.884C111.267 111.961 109.359 111.705 106.485 110.048C104.828 109.094 103.335 107.946 102.167 106.729C101.693 106.235 100.976 106.061 100.329 106.283C99.1713 106.679 91.3678 108.67 90 108.998C89.0552 109.225 88.2735 110.555 88.5006 111.498C88.7267 112.442 96.3982 111.02 97.3421 110.795C98.4243 110.535 99.4579 110.252 100.429 109.949C101.675 111.105 103.144 112.181 104.73 113.094C107.402 114.634 109.845 115.413 112.002 115.412C112.207 115.412 112.409 115.405 112.609 115.391C114.933 115.228 116.817 114.089 117.915 112.184C119.64 109.192 119.133 104.648 112.716 100.695C116.883 93.6175 118.65 83.6264 119.398 76.2317C120.468 65.6445 120.104 54.2187 118.371 44.06Z" fill="black"/>
<path d="M100.508 55.5826V45.2921C100.508 40.8279 96.8763 37.196 92.4113 37.196H62.7601C58.296 37.196 54.6641 40.8279 54.6641 45.2921V55.5826C54.6641 60.0467 58.296 63.6786 62.7601 63.6786H92.4122C96.8763 63.6786 100.508 60.0467 100.508 55.5826ZM96.9926 55.5826C96.9926 58.1085 94.9372 60.163 92.4113 60.163H62.7601C60.2341 60.163 58.1797 58.1085 58.1797 55.5826V45.2921C58.1797 42.767 60.2341 40.7117 62.7601 40.7117H92.4122C94.9372 40.7117 96.9926 42.767 96.9926 45.2921V55.5826Z" fill="black"/>
<path d="M83.139 99.8785H80.2661C79.5319 91.5198 73.6121 84.4226 65.4959 82.2308C64.9548 76.5582 62.4133 71.315 58.2513 67.348C53.8394 63.1412 48.0771 60.8258 41.9879 60.8029L27.6617 21.4453C31.1417 17.883 32.796 12.778 32.0059 7.83692C31.8155 6.6504 31.1115 5.61951 30.0742 5.00977C29.0359 4.39912 27.7917 4.28468 26.6602 4.69666L4.78729 12.6581C3.6557 13.0701 2.77588 13.9572 2.37305 15.0925C1.97021 16.2259 2.09381 17.4683 2.71088 18.5001C5.28168 22.7921 9.8291 25.6394 14.7839 26.1319L28.8345 64.7388C26.0568 66.5836 23.6499 69.028 21.8015 71.9669C21.2842 72.789 21.5314 73.8739 22.3535 74.3912C23.1747 74.9075 24.2596 74.6603 24.7769 73.8391C31.6653 62.8876 46.636 61.1316 55.8261 69.8923C59.6494 73.5379 61.8677 78.4461 62.0737 83.714C62.1048 84.527 62.6898 85.2118 63.4882 85.3702C71.217 86.9028 76.8274 93.7445 76.8283 101.637C76.8283 102.608 77.6147 103.395 78.5861 103.395H83.139C85.8719 103.395 88.0948 105.618 88.0948 108.35V111.898H3.51562V108.35C3.51562 105.618 5.73853 103.395 8.47046 103.395H11.8057C12.7762 103.395 13.5635 102.608 13.5635 101.637C13.5635 97.0276 16.6672 92.9581 21.1111 91.7413C22.0386 91.4877 22.5897 90.5356 22.348 89.6054C21.8344 87.627 21.6248 85.5771 21.7245 83.5126C21.785 82.2638 21.9644 81.0159 22.2565 79.8047C22.4844 78.8617 21.9031 77.9123 20.9601 77.6843C20.0162 77.4573 19.0668 78.0368 18.8388 78.9807C18.4955 80.4062 18.2849 81.8738 18.2135 83.3423C18.1229 85.2127 18.2492 87.0731 18.5898 88.8941C14.0259 90.77 10.7932 94.9869 10.1614 99.8795H8.47137C3.80035 99.8785 0 103.679 0 108.35V112.879C0 114.276 1.13708 115.412 2.53418 115.412H89.0762C90.4733 115.412 91.6104 114.276 91.6104 112.879V108.35C91.6104 103.679 87.8101 99.8785 83.139 99.8785ZM5.72754 16.6937C5.62225 16.518 5.65613 16.3513 5.68542 16.268C5.71564 16.1838 5.79437 16.0318 5.98938 15.9613L27.8622 7.99989C28.1598 7.89094 28.4839 8.08137 28.5342 8.39265C29.4626 14.1962 26.1502 19.9054 20.5518 21.9425C19.1052 22.4689 17.5992 22.717 16.0785 22.6904C11.857 22.6053 7.89093 20.3073 5.72754 16.6937ZM18.4991 26.0577C19.6042 25.9039 20.6927 25.6329 21.7548 25.2466C22.8177 24.8602 23.8257 24.3677 24.7696 23.7763L38.3432 61.0693C36.1111 61.4063 33.9587 62.0599 31.9418 62.9974L18.4991 26.0577Z" fill="black"/>
<path d="M55.8669 95.0563C56.5947 94.5647 57.4461 94.3047 58.3296 94.3047C60.7603 94.3047 62.7379 96.2822 62.7379 98.713C62.7379 99.6834 63.5252 100.471 64.4957 100.471C65.4671 100.471 66.2535 99.6834 66.2535 98.713C66.2535 94.3431 62.6994 90.7891 58.3296 90.7891C56.7421 90.7891 55.2095 91.2569 53.8985 92.1431C53.0946 92.687 52.8831 93.7792 53.4261 94.5839C53.9699 95.3878 55.0621 95.5992 55.8669 95.0563Z" fill="black"/>
<path d="M24.2557 98.7827C23.6688 99.5563 23.8208 100.659 24.5953 101.245C24.9121 101.485 25.2847 101.602 25.6546 101.602C26.1865 101.602 26.712 101.362 27.0572 100.905C27.8153 99.9052 28.9679 99.332 30.2213 99.332C31.1899 99.332 32.1228 99.6845 32.8479 100.325C33.5748 100.969 34.6854 100.9 35.3281 100.173C35.9717 99.4465 35.9039 98.3359 35.1761 97.6923C33.8083 96.4829 32.0487 95.8164 30.2213 95.8164C27.8583 95.8164 25.6839 96.8976 24.2557 98.7827Z" fill="black"/>
<path d="M35.8199 80.9399C36.4882 80.9399 37.1263 80.5563 37.4211 79.909C37.6198 79.4704 37.9027 79.0804 38.2606 78.7508C39.7218 77.4041 42.0061 77.4984 43.3528 78.9596C44.0102 79.6728 45.1225 79.7186 45.8366 79.0612C46.5508 78.4029 46.5965 77.2915 45.9383 76.5774C43.2787 73.6907 38.766 73.5058 35.8784 76.1654C35.1726 76.8163 34.6141 77.5863 34.2204 78.4551C33.8185 79.3395 34.2104 80.3814 35.0938 80.7824C35.33 80.8895 35.5763 80.9399 35.8199 80.9399Z" fill="black"/>
</g>
<defs>
<clipPath id="clip0_415_1638">
<rect width="120" height="120" fill="white"/>
</clipPath>
</defs>
</svg>
