<svg width="245" height="125" viewBox="0 0 245 125" fill="none" xmlns="http://www.w3.org/2000/svg">
<path d="M157.585 82.5627C161.709 85.6967 163.657 94.9457 164.062 98.2522L166.924 122.32H158.963L157.361 124H170.35V122.09L167.278 97.7827C167.213 97.2452 165.586 84.4408 159.504 79.8474C157.466 78.4219 155.283 77.2367 152.991 76.3175C152.854 76.2072 152.705 76.1195 152.54 76.0601L151.203 75.5651C149.181 74.7477 147.071 73.984 145.044 73.3221L143.793 72.8639C143.669 72.8158 143.542 72.7876 143.41 72.7734C140.021 71.6505 137.046 70.8218 135.452 70.3862V66.6753C140.291 63.0548 143.166 57.2112 143.161 50.9858V48.1291C143.702 48.3355 144.272 48.443 144.842 48.4515C147.547 48.4515 149.738 46.1576 149.738 43.3263V38.7555C149.738 37.5138 149.3 36.3174 148.514 35.3953C149.036 34.5242 149.3 33.5116 149.279 32.4877V30.536C149.354 29.1133 148.925 27.7104 148.076 26.5932C147.636 26.1123 147.071 25.7673 146.45 25.606C146.066 20.9758 143.966 7.38227 132.766 2.07042H132.669C129.75 0.760843 126.619 0.0593848 123.449 0.00564407H122.517C119.485 -0.0594105 116.467 0.438399 113.597 1.47361H113.521C101.119 6.24805 98.884 20.7552 98.5327 25.5608C97.9085 25.722 97.3411 26.0642 96.9033 26.5479C96.0143 27.651 95.5496 29.0567 95.6063 30.4936V32.5018C95.582 33.5257 95.8468 34.5355 96.3656 35.401C95.5847 36.3316 95.1442 37.528 95.1442 38.7697V43.349C95.1442 46.1802 97.3384 48.4713 100.041 48.4713C100.616 48.4713 101.181 48.361 101.719 48.1489V51.0169C101.729 57.1716 104.542 62.9502 109.293 66.5763V70.3862C103.564 71.9503 97.9193 73.8482 92.3935 76.0799H92.3205C89.8724 77.0387 87.5377 78.2917 85.3571 79.8021C79.2746 84.4408 77.6507 97.2311 77.5831 97.7402L74.7119 124H87.5756L86.1542 121.886H78.0773L80.7959 98.1758C81.2067 94.8778 83.1495 85.6401 87.2216 82.4807C88.5159 81.5784 89.8886 80.8091 91.3234 80.1812V94.7505C88.9564 95.6613 85.9705 98.2098 85.9705 103.589L86.1542 121.886C86.1542 122.811 86.6866 124 87.5756 124H157.361C158.25 124 158.963 123.244 158.963 122.32V103.621C158.963 98.2409 155.958 95.6953 153.61 94.7873V80.2179C155.007 80.8628 156.334 81.6491 157.585 82.5627ZM146.555 38.7555V43.3405C146.485 44.3078 145.671 45.0319 144.747 44.9555C143.926 44.8848 143.272 44.2003 143.204 43.3405V38.7555C143.134 37.7854 143.82 36.9397 144.747 36.8576C145.671 36.7813 146.485 37.5054 146.555 38.4727C146.566 38.566 146.566 38.6622 146.555 38.7555ZM124.711 3.44788C126.665 3.60344 128.591 4.04751 130.431 4.75463V13.2655C129.107 15.2595 127.019 16.5408 124.711 16.7728V3.44788ZM115.78 4.28793C117.639 3.73073 119.561 3.42242 121.501 3.36868V16.818C119.193 16.5861 117.099 15.302 115.78 13.3079V4.28793ZM101.678 43.3263C101.605 44.2937 100.792 45.0206 99.8703 44.9414C99.0488 44.8763 98.3949 44.1918 98.3274 43.3263V38.7555C98.2517 37.7854 98.9434 36.9397 99.8703 36.8576C100.792 36.7813 101.605 37.5054 101.678 38.4727C101.686 38.566 101.686 38.6622 101.678 38.7555V43.3263ZM99.9973 33.6219C99.6919 33.6219 99.3947 33.653 99.1002 33.7096C98.8516 33.3617 98.7327 32.9233 98.7759 32.4877V30.4512C98.757 29.9166 98.884 29.3905 99.1515 28.9351C99.2136 28.8814 99.2947 28.8616 99.3785 28.8729H99.9973C100.884 28.8729 101.605 28.1177 101.605 27.1871C101.605 26.4037 101.816 11.492 112.559 5.63994V13.7152C112.559 13.9641 112.614 14.2073 112.716 14.4308C112.827 14.6655 115.445 20.2602 123.092 20.2602C130.737 20.2602 133.366 14.6571 133.471 14.4308C133.569 14.2073 133.625 13.9641 133.617 13.7152V6.44887C143.034 12.7394 143.258 26.4348 143.258 27.1871C143.258 28.1177 143.98 28.8729 144.863 28.8729H145.485C145.644 28.8729 145.679 28.8729 145.709 28.9351C145.982 29.4018 146.109 29.9392 146.085 30.4879V32.4877C146.128 32.9289 146.004 33.3702 145.742 33.7096C144.166 33.3843 142.537 33.9047 141.407 35.104H103.475C102.553 34.1451 101.302 33.6191 100.008 33.6332L99.9973 33.6219ZM104.891 51.0169V38.467H140.013V51.0169C140 59.8304 133.171 66.9638 124.754 66.9553H120.128C111.719 66.9525 104.902 59.8219 104.891 51.0169ZM132.28 68.6269V71.1131L122.43 84.2966L112.47 71.1131V68.5562C114.872 69.7243 117.485 70.3268 120.128 70.3296H124.754C127.351 70.3296 129.918 69.747 132.28 68.6269ZM103.188 75.7009C106.25 74.7222 108.887 73.9755 110.255 73.6022L122.452 89.7442L134.512 73.6022C135.898 73.984 138.578 74.7222 141.707 75.7433V94.9995H103.153L103.188 75.7009ZM155.756 103.621V120.668H89.1806V103.621C89.1806 98.5463 92.7691 97.8166 93.1528 97.7459C93.9499 97.6299 94.5363 96.9172 94.5363 96.0799V78.815C96.3008 78.0966 98.176 77.4149 99.9973 76.7983V96.6824C99.9973 97.6129 100.716 98.3681 101.605 98.3681H143.364C144.25 98.3681 144.972 97.6129 144.972 96.6824V76.8323L150.378 78.815V96.0799C150.378 96.92 150.976 97.6384 151.77 97.7459C151.935 97.7685 155.756 98.3682 155.756 103.621Z" fill="black"/>
<path d="M92.8984 101.504H101.57V104.519H92.8984V101.504Z" fill="black"/>
<path d="M143.312 101.504H151.989V104.519H143.312V101.504Z" fill="black"/>
<g clip-path="url(#clip0_415_1563)">
<path d="M225.247 90.0982C228.621 92.6623 230.215 100.23 230.546 102.935L233.062 122.8L235.691 122.439L233.177 102.551C233.124 102.111 231.793 91.6348 226.817 87.8766C225.15 86.7102 223.363 85.7406 221.489 84.9885C221.376 84.8982 221.254 84.8265 221.119 84.7779L220.025 84.3729C218.371 83.7041 216.645 83.0792 214.987 82.5377L213.963 82.1628C213.861 82.1235 213.757 82.1003 213.649 82.0888C210.877 81.17 208.443 80.492 207.138 80.1356V77.0994C211.098 74.1372 213.45 69.3561 213.446 64.2625V61.9252C213.888 62.0941 214.354 62.1821 214.821 62.189C217.034 62.189 218.827 60.3122 218.827 57.9957V54.256C218.827 53.24 218.469 52.2611 217.825 51.5067C218.252 50.7939 218.469 49.9654 218.451 49.1277V47.5309C218.513 46.3669 218.161 45.219 217.467 44.3049C217.107 43.9115 216.645 43.6292 216.136 43.4973C215.822 39.7089 214.104 28.5869 204.941 24.2409H204.861C202.473 23.1694 199.911 22.5955 197.318 22.5515H196.555C194.074 22.4983 191.605 22.9056 189.257 23.7526H189.195C179.047 27.6589 177.219 39.5284 176.931 43.4602C176.421 43.5921 175.957 43.8722 175.598 44.2679C174.871 45.1704 174.491 46.3206 174.537 47.4962V49.1393C174.517 49.977 174.734 50.8032 175.158 51.5113C174.519 52.2727 174.159 53.2516 174.159 54.2675V58.0142C174.159 60.3307 175.954 62.2052 178.165 62.2052C178.636 62.2052 179.098 62.115 179.538 61.9414V64.288C179.547 69.3237 181.848 74.0516 185.735 77.0184V80.1356C181.048 81.4153 176.43 82.9682 171.908 84.7941H171.849C169.846 85.5786 167.936 86.6038 166.151 87.8395C161.175 91.6348 163.561 91.5923 162.215 87.0319L163.561 91.5923L164.907 100.07H166.151C166.488 97.3717 164.345 92.616 167.677 90.0311C168.736 89.2929 169.859 88.6634 171.033 88.1496V100.07C169.096 100.815 166.653 102.9 166.653 107.302L167.967 121.275C167.967 122.032 167.239 124.001 167.967 124.001H225.064C225.791 124.001 226.375 123.383 226.375 122.627V107.327C226.375 102.926 223.916 100.843 221.995 100.1V88.1797C223.138 88.7074 224.223 89.3507 225.247 90.0982ZM216.222 54.256V58.0073C216.165 58.7987 215.499 59.3912 214.743 59.3287C214.071 59.2708 213.536 58.7108 213.481 58.0073V54.256C213.424 53.4622 213.985 52.7702 214.743 52.7031C215.499 52.6406 216.165 53.2331 216.222 54.0245C216.231 54.1009 216.231 54.1796 216.222 54.256ZM198.35 25.3679C199.948 25.4951 201.525 25.8585 203.03 26.437V33.4004C201.947 35.0319 200.238 36.0803 198.35 36.27V25.3679ZM191.043 26.0552C192.564 25.5993 194.136 25.347 195.724 25.3031V36.3071C193.836 36.1173 192.122 35.0667 191.043 33.4351V26.0552ZM179.505 57.9957C179.445 58.7871 178.78 59.3819 178.026 59.3171C177.354 59.2639 176.819 58.7038 176.763 57.9957V54.256C176.702 53.4622 177.268 52.7702 178.026 52.7031C178.78 52.6406 179.445 53.2331 179.505 54.0245C179.512 54.1009 179.512 54.1796 179.505 54.256V57.9957ZM178.13 50.0557C177.88 50.0557 177.637 50.0811 177.396 50.1274C177.192 49.8428 177.095 49.4841 177.13 49.1277V47.4615C177.115 47.0241 177.219 46.5937 177.438 46.2211C177.489 46.1771 177.555 46.1609 177.623 46.1702H178.13C178.855 46.1702 179.445 45.5523 179.445 44.7909C179.445 44.1499 179.618 31.9494 188.408 27.1614V33.7684C188.408 33.972 188.452 34.1711 188.536 34.3539C188.627 34.546 190.769 39.1234 197.026 39.1234C203.28 39.1234 205.431 34.539 205.518 34.3539C205.597 34.1711 205.644 33.972 205.637 33.7684V27.8232C213.342 32.97 213.525 44.1753 213.525 44.7909C213.525 45.5523 214.116 46.1702 214.838 46.1702H215.347C215.477 46.1702 215.506 46.1702 215.53 46.2211C215.754 46.6029 215.858 47.0426 215.838 47.4916V49.1277C215.873 49.4887 215.771 49.8497 215.557 50.1274C214.268 49.8613 212.935 50.2871 212.011 51.2683H180.975C180.221 50.4838 179.198 50.0534 178.139 50.0649L178.13 50.0557ZM182.134 64.288V54.0199H210.87V64.288C210.859 71.499 205.272 77.3354 198.385 77.3285H194.6C187.72 77.3262 182.142 71.4921 182.134 64.288ZM204.543 78.6962V80.7303L196.484 91.5168L188.335 80.7303V78.6383C190.3 79.5941 192.438 80.087 194.6 80.0893H198.385C200.51 80.0893 202.61 79.6126 204.543 78.6962ZM180.741 84.484C183.246 83.6833 185.403 83.0723 186.522 82.7668L196.502 95.9739L206.369 82.7668C207.503 83.0792 209.696 83.6833 212.256 84.5187V100.274H180.712L180.741 84.484ZM223.75 107.327V121.275H169.28V107.327C169.28 103.176 172.216 102.579 172.53 102.521C173.182 102.426 173.662 101.843 173.662 101.158V87.0319C175.105 86.4441 176.64 85.8864 178.13 85.3819V101.651C178.13 102.412 178.718 103.03 179.445 103.03H213.611C214.337 103.03 214.927 102.412 214.927 101.651V85.4096L219.351 87.0319V101.158C219.351 101.845 219.839 102.433 220.489 102.521C220.624 102.539 223.75 103.03 223.75 107.327Z" fill="black"/>
<path d="M172.32 105.594H179.415V108.061H172.32V105.594Z" fill="black"/>
<path d="M213.57 105.594H220.669V108.061H213.57V105.594Z" fill="black"/>
</g>
<g clip-path="url(#clip1_415_1563)">
<path d="M77.1691 90.0982C80.5428 92.6623 78.4072 98.4524 78.7388 101.158L78.9779 97.2287L80.7716 92.2969L82.1177 87.8766C82.0647 87.4369 83.7154 91.6348 78.7388 87.8766C77.0718 86.7102 75.2855 85.7406 73.4107 84.9885C73.2979 84.8982 73.1763 84.8265 73.0415 84.7779L71.9471 84.3729C70.2934 83.7041 68.5667 83.0792 66.9086 82.5377L65.885 82.1628C65.7833 82.1235 65.6794 82.1003 65.5711 82.0888C62.7987 81.17 60.3645 80.492 59.0602 80.1356V77.0994C63.0198 74.1372 65.3721 69.3561 65.3677 64.2625V61.9252C65.8098 62.0941 66.2763 62.1821 66.7428 62.189C68.9558 62.189 70.7488 60.3122 70.7488 57.9957V54.256C70.7488 53.24 70.3907 52.2611 69.7473 51.5067C70.174 50.7939 70.3907 49.9654 70.373 49.1277V47.5309C70.4349 46.3669 70.0834 45.219 69.3892 44.3049C69.0288 43.9115 68.5667 43.6292 68.0582 43.4973C67.7443 39.7089 66.0265 28.5869 56.8626 24.2409H56.783C54.3953 23.1694 51.8329 22.5955 49.2396 22.5515H48.4769C45.9963 22.4983 43.5268 22.9056 41.1789 23.7526H41.117C30.9693 27.6589 29.1409 39.5284 28.8535 43.4602C28.3428 43.5921 27.8786 43.8722 27.5204 44.2679C26.793 45.1704 26.4128 46.3206 26.4592 47.4962V49.1393C26.4393 49.977 26.656 50.8032 27.0804 51.5113C26.4415 52.2727 26.0811 53.2516 26.0811 54.2675V58.0142C26.0811 60.3307 27.8763 62.2052 30.0872 62.2052C30.5581 62.2052 31.0201 62.115 31.4601 61.9414V64.288C31.4689 69.3237 33.7704 74.0516 37.6571 77.0184V80.1356C32.9701 81.4153 28.3517 82.9682 23.8305 84.7941H23.7708C21.7678 85.5786 19.8576 86.6038 18.0735 87.8395C13.0969 91.6348 11.7682 102.1 11.7129 102.516L9.19922 122.416L11.8279 122.772L14.3416 102.873C14.6777 100.174 16.2673 92.616 19.599 90.0311C20.658 89.2929 21.7811 88.6634 22.955 88.1496V100.07C21.0183 100.815 18.5754 102.9 18.5754 107.302V122.627C18.5754 123.383 19.1612 124.001 19.8886 124.001H76.9856C77.713 124.001 76.9856 122.032 76.9856 121.275L78.2966 107.327C78.2966 102.926 75.8382 100.843 73.917 100.1V88.1797C75.06 88.7074 76.1455 89.3507 77.1691 90.0982ZM68.1445 54.256V58.0073C68.087 58.7987 67.4215 59.3912 66.6654 59.3287C65.9933 59.2708 65.4583 58.7108 65.403 58.0073V54.256C65.3456 53.4622 65.9071 52.7702 66.6654 52.7031C67.4215 52.6406 68.087 53.2331 68.1445 54.0245C68.1533 54.1009 68.1533 54.1796 68.1445 54.256ZM50.2721 25.3679C51.8705 25.4951 53.4468 25.8585 54.9524 26.437V33.4004C53.8691 35.0319 52.1601 36.0803 50.2721 36.27V25.3679ZM42.9653 26.0552C44.4863 25.5993 46.0582 25.347 47.6456 25.3031V36.3071C45.7576 36.1173 44.0442 35.0667 42.9653 33.4351V26.0552ZM31.4269 57.9957C31.3672 58.7871 30.7018 59.3819 29.9479 59.3171C29.2758 59.2639 28.7408 58.7038 28.6855 57.9957V54.256C28.6236 53.4622 29.1896 52.7702 29.9479 52.7031C30.7018 52.6406 31.3672 53.2331 31.4269 54.0245C31.4336 54.1009 31.4336 54.1796 31.4269 54.256V57.9957ZM30.0518 50.0557C29.802 50.0557 29.5588 50.0811 29.3178 50.1274C29.1144 49.8428 29.0171 49.4841 29.0525 49.1277V47.4615C29.037 47.0241 29.1409 46.5937 29.3598 46.2211C29.4107 46.1771 29.477 46.1609 29.5455 46.1702H30.0518C30.777 46.1702 31.3672 45.5523 31.3672 44.7909C31.3672 44.1499 31.5397 31.9494 40.33 27.1614V33.7684C40.33 33.972 40.3742 34.1711 40.4582 34.3539C40.5488 34.546 42.6911 39.1234 48.9478 39.1234C55.2022 39.1234 57.3534 34.539 57.4396 34.3539C57.5192 34.1711 57.5656 33.972 57.559 33.7684V27.8232C65.2638 32.97 65.4473 44.1753 65.4473 44.7909C65.4473 45.5523 66.0375 46.1702 66.7605 46.1702H67.269C67.3994 46.1702 67.4282 46.1702 67.4525 46.2211C67.6758 46.6029 67.7797 47.0426 67.7598 47.4916V49.1277C67.7952 49.4887 67.6935 49.8497 67.479 50.1274C66.1901 49.8613 64.857 50.2871 63.9328 51.2683H32.8971C32.1433 50.4838 31.1196 50.0534 30.0606 50.0649L30.0518 50.0557ZM34.0556 64.288V54.0199H62.792V64.288C62.781 71.499 57.1942 77.3354 50.3075 77.3285H46.5225C39.6424 77.3262 34.0645 71.4921 34.0556 64.288ZM56.4646 78.6962V80.7303L48.4061 91.5168L40.257 80.7303V78.6383C42.2224 79.5941 44.3603 80.087 46.5225 80.0893H50.3075C52.4321 80.0893 54.5324 79.6126 56.4646 78.6962ZM32.6628 84.484C35.1677 83.6833 37.3254 83.0723 38.4441 82.7668L48.4238 95.9739L58.2908 82.7668C59.4249 83.0792 61.6181 83.6833 64.1782 84.5187V100.274H32.6341L32.6628 84.484ZM75.6724 107.327V121.275H21.2018V107.327C21.2018 103.176 24.1378 102.579 24.4518 102.521C25.104 102.426 25.5837 101.843 25.5837 101.158V87.0319C27.0274 86.4441 28.5617 85.8864 30.0518 85.3819V101.651C30.0518 102.412 30.6399 103.03 31.3672 103.03H65.5335C66.2586 103.03 66.8489 102.412 66.8489 101.651V85.4096L71.2728 87.0319V101.158C71.2728 101.845 71.7614 102.433 72.4114 102.521C72.5462 102.539 75.6724 103.03 75.6724 107.327Z" fill="black"/>
<path d="M24.2422 105.594H31.3367V108.061H24.2422V105.594Z" fill="black"/>
<path d="M65.4912 105.594H72.5902V108.061H65.4912V105.594Z" fill="black"/>
</g>
<defs>
<clipPath id="clip0_415_1563">
<rect width="96.9232" height="101.455" fill="white" transform="translate(148.078 22.5469)"/>
</clipPath>
<clipPath id="clip1_415_1563">
<rect width="96.9232" height="101.455" fill="white" transform="translate(0 22.5469)"/>
</clipPath>
</defs>
</svg>
