<svg width="120" height="120" viewBox="0 0 120 120" fill="none" xmlns="http://www.w3.org/2000/svg">
<g clip-path="url(#clip0_415_1607)">
<path d="M51.8639 81.3547C59.1653 81.3547 65.0842 75.4358 65.0842 68.1344C65.0842 60.833 59.1653 54.9141 51.8639 54.9141C44.5625 54.9141 38.6436 60.833 38.6436 68.1344C38.6548 75.4311 44.5671 81.3435 51.8639 81.3547ZM51.8639 58.9819C56.9187 58.9819 61.0164 63.0796 61.0164 68.1344C61.0164 73.1892 56.9187 77.2869 51.8639 77.2869C46.8091 77.2869 42.7114 73.1892 42.7114 68.1344C42.7225 63.0842 46.8137 58.993 51.8639 58.9819Z" fill="black"/>
<path d="M5.00324 56.3797C2.06776 56.9164 -0.0488229 59.4976 -0.00015419 62.4814V73.9932C-0.0488229 76.977 2.06776 79.5582 5.00324 80.0949L16.9015 82.2509C17.0236 82.5763 17.1659 82.9017 17.3083 83.2068L10.4134 92.9492C8.73619 95.3764 9.03589 98.656 11.1253 100.739L19.2609 108.875C21.3491 110.958 24.6282 111.249 27.0507 109.566L36.9965 102.671L37.9524 103.078L40.1083 114.976C40.6451 117.912 43.2263 120.028 46.21 119.98H57.7219C60.7056 120.028 63.2868 117.912 63.8236 114.976L65.9795 103.078L66.9354 102.671L76.8812 109.566C79.3084 111.243 82.588 110.944 84.671 108.854L91.2202 102.325C92.0402 101.55 92.0766 100.257 91.3015 99.4373C90.5265 98.6173 89.2334 98.5809 88.4134 99.3559L81.7829 105.986C81.0923 106.678 80.0077 106.78 79.1998 106.231L71.0643 100.576C75.7776 97.7974 79.8195 94.0125 82.9015 89.4915C83.5306 88.5592 83.2847 87.2935 82.3524 86.6644C81.4201 86.0354 80.1543 86.2812 79.5253 87.2136C69.8693 101.281 51.1951 105.864 36.1239 97.8645C21.0528 89.8655 14.3827 71.8311 20.6217 55.9504C26.8607 40.0696 44.0227 31.3981 60.5083 35.7966C61.2132 35.9783 61.9614 35.7701 62.4711 35.2505C62.9809 34.7309 63.1747 33.9789 62.9796 33.2776C62.7845 32.5764 62.2301 32.0325 61.5253 31.8509C55.2355 30.2241 48.6353 30.2241 42.3456 31.8509L44.0948 22.1085C44.2737 21.13 45.1341 20.4245 46.1287 20.4407H52.8812C54.0045 20.4407 54.9151 19.5301 54.9151 18.4068C54.9151 17.2835 54.0045 16.3729 52.8812 16.3729H46.1083C43.1246 16.3242 40.5434 18.4408 40.0066 21.3763L37.8507 33.2746L36.8948 33.6814L27.0507 26.6848C24.6235 25.0075 21.3439 25.3072 19.2609 27.3966L11.1253 35.5322C9.04233 37.6204 8.75123 40.8996 10.4337 43.322L17.3287 53.2678C17.1863 53.5729 17.0439 53.8983 16.9219 54.2237L5.00324 56.3797ZM4.06764 73.8915V62.3797C4.05142 61.3851 4.75695 60.5247 5.73544 60.3458L15.4575 58.5966C13.8302 64.8381 13.8302 71.3925 15.4575 77.6339L5.73544 75.8848C4.77215 75.7085 4.07123 74.8708 4.06764 73.8915ZM61.3829 104.542L59.6337 114.264C59.4548 115.243 58.5944 115.948 57.5998 115.932H46.1083C45.1137 115.948 44.2533 115.243 44.0744 114.264L42.3253 104.542C48.5718 106.183 55.1363 106.183 61.3829 104.542ZM32.9083 100.617L24.7727 106.251C23.9696 106.806 22.8854 106.712 22.1897 106.027L14.0541 97.8915C13.3628 97.2009 13.2603 96.1163 13.81 95.3085L19.4439 87.1729C22.7027 92.7295 27.3313 97.3582 32.888 100.617H32.9083ZM13.9727 38.4203L22.1083 30.2848C22.7989 29.5935 23.8835 29.491 24.6914 30.0407L32.827 35.6746C27.2404 38.942 22.5893 43.5931 19.3219 49.1797L13.688 41.0441C13.1256 40.2183 13.2463 39.1063 13.9727 38.4203Z" fill="black"/>
<path d="M115.933 0H63.0515C60.8049 0 58.9837 1.82121 58.9837 4.0678V22.3729C58.9651 23.8194 59.7478 25.1578 61.0176 25.8508C61.8379 26.3382 62.7946 26.5453 63.743 26.4407C69.5803 41.0644 68.238 37.6678 70.3125 42.8339C68.4574 43.2423 67.1319 44.8802 67.1193 46.7797V52.8814C67.1193 55.1279 68.9405 56.9492 71.1871 56.9492H73.221V63.0508C73.221 65.2974 75.0422 67.1186 77.2888 67.1186H79.3227V79.322C79.3227 79.9622 79.6241 80.565 80.1363 80.9492L87.4583 86.4407V93.5593C87.4583 94.6826 88.3689 95.5932 89.4922 95.5932C90.6155 95.5932 91.5261 94.6826 91.5261 93.5593V86.4407L98.8481 80.9492C99.3603 80.565 99.6617 79.9622 99.6617 79.322V67.1186H101.696C103.942 67.1186 105.763 65.2974 105.763 63.0508V56.9492H107.797C110.044 56.9492 111.865 55.1279 111.865 52.8814V46.7797C111.857 44.8923 110.552 43.2585 108.713 42.8339L115.282 26.4407H115.933C118.179 26.4407 120.001 24.6195 120.001 22.3729V4.0678C120.001 1.82121 118.179 0 115.933 0V0ZM95.5939 78.3051L89.4922 82.8814L83.3905 78.3051V67.1186H95.5939V78.3051ZM107.797 52.8814H89.4922C88.3689 52.8814 87.4583 53.792 87.4583 54.9153C87.4583 56.0385 88.3689 56.9492 89.4922 56.9492H101.696V63.0508H77.2888V56.9492H81.3566C82.4799 56.9492 83.3905 56.0385 83.3905 54.9153C83.3905 53.792 82.4799 52.8814 81.3566 52.8814H71.1871V46.7797H107.797V52.8814ZM104.38 42.7119H74.6041L68.0956 26.4407H110.807L104.38 42.7119ZM115.933 22.3729H63.0515V4.0678H115.933V22.3729Z" fill="black"/>
<path d="M69.1501 12.2045H73.2179C74.3412 12.2045 75.2518 11.2939 75.2518 10.1706C75.2518 9.04733 74.3412 8.13672 73.2179 8.13672H69.1501C68.0268 8.13672 67.1162 9.04733 67.1162 10.1706C67.1162 11.2939 68.0268 12.2045 69.1501 12.2045Z" fill="black"/>
<path d="M81.3562 12.2045H109.831C110.954 12.2045 111.865 11.2939 111.865 10.1706C111.865 9.04733 110.954 8.13672 109.831 8.13672H81.3562C80.2329 8.13672 79.3223 9.04733 79.3223 10.1706C79.3223 11.2939 80.2329 12.2045 81.3562 12.2045Z" fill="black"/>
<path d="M40.4527 45.8656C39.9451 44.8684 38.7273 44.4685 37.7273 44.9707C29.1443 49.2622 24.4053 57.8453 24.4053 69.1537C24.4053 70.277 25.3159 71.1876 26.4392 71.1876C27.5625 71.1876 28.4731 70.277 28.4731 69.1537C28.4731 59.4724 32.3985 52.1707 39.5578 48.591C40.5551 48.0834 40.955 46.8656 40.4527 45.8656Z" fill="black"/>
<path d="M44.7478 44.7475C45.8711 44.7475 46.7817 43.8369 46.7817 42.7136C46.7817 41.5903 45.8711 40.6797 44.7478 40.6797C43.6245 40.6797 42.7139 41.5903 42.7139 42.7136C42.7139 43.8369 43.6245 44.7475 44.7478 44.7475Z" fill="black"/>
</g>
<defs>
<clipPath id="clip0_415_1607">
<rect width="120" height="120" fill="white"/>
</clipPath>
</defs>
</svg>
