<svg width="120" height="120" viewBox="0 0 120 120" fill="none" xmlns="http://www.w3.org/2000/svg">
<path d="M111.6 54.2268L108.492 41.7967C109.342 41.6162 109.979 40.8625 109.979 39.9594V37.9553C109.979 33.6039 106.439 30.0639 102.088 30.0639H87.9333V25.93C87.9333 23.7887 86.1914 22.0469 84.0502 22.0469H11.8997C9.75844 22.0469 8.01656 23.7887 8.01656 25.93V60.0011C8.01656 61.0387 8.85773 61.8801 9.89555 61.8801C10.9331 61.8801 11.7745 61.0389 11.7745 60.0011V25.93C11.7745 25.8609 11.8305 25.8048 11.8997 25.8048H84.0499C84.1191 25.8048 84.1751 25.8609 84.1751 25.93L84.1746 68.0177C84.1746 69.0552 84.9622 69.0011 86 69.0011C87.0376 69.0011 87.9326 69.0555 87.9326 68.0177L87.933 57.8716H110.098L110.103 57.872L110.108 57.8718C112.835 57.8737 115.151 59.6638 115.946 62.1306H110.104C109.066 62.1306 108.225 62.9718 108.225 64.0096V68.0179C108.225 71.2642 110.866 73.9051 114.112 73.9051H116.242V82.1722H111.329C109.715 77.5122 105.285 74.1555 100.083 74.1555C94.8811 74.1555 90.4509 77.5122 88.8373 82.1722H87.9326V68.0177C87.9326 66.9801 87.0914 66.1387 86.0536 66.1387C85.016 66.1387 84.1746 66.9798 84.1746 68.0177V82.1718H45.1915C43.5776 77.5117 39.1477 74.155 33.9457 74.155C28.7438 74.155 24.3136 77.5117 22.6999 82.1718H11.8997C11.8305 82.1718 11.7745 82.1158 11.7745 82.0466V77.913H19.9165C20.9541 77.913 21.7955 77.0718 21.7955 76.034C21.7955 74.9962 20.9543 74.155 19.9165 74.155H1.87898C0.841406 74.155 0 74.9962 0 76.034C0 77.0718 0.841172 77.913 1.87898 77.913H8.0168V82.0466C8.0168 84.1879 9.75867 85.9298 11.8999 85.9298H22.0493C22.0488 85.9715 22.046 86.013 22.046 86.0549C22.046 92.6165 27.3844 97.9546 33.9457 97.9546C40.507 97.9546 45.8454 92.6165 45.8454 86.0549C45.8454 86.0127 45.8426 85.9715 45.8421 85.9298H88.1866C88.1862 85.9715 88.1834 86.013 88.1834 86.0549C88.1834 92.6165 93.5217 97.9546 100.083 97.9546C106.644 97.9546 111.983 92.6165 111.983 86.0549C111.983 86.0127 111.98 85.9715 111.979 85.9298H118.121C119.158 85.9298 120 85.0886 120 84.0508V64.0091C120 59.061 116.349 54.9498 111.6 54.2268ZM87.9333 33.8216H102.088C104.367 33.8216 106.221 35.676 106.221 37.9553V38.0805H87.9333V33.8216ZM87.9333 54.1138V41.8382H104.629L107.698 54.1138H87.9333ZM33.9457 94.1973C29.4563 94.1973 25.8038 90.5451 25.8038 86.0554C25.8038 81.5657 29.4563 77.9134 33.9457 77.9134C38.4352 77.9134 42.0877 81.5657 42.0877 86.0554C42.0877 90.5451 38.4352 94.1973 33.9457 94.1973ZM100.084 94.1973C95.5941 94.1973 91.9416 90.5451 91.9416 86.0554C91.9416 81.5657 95.5941 77.9134 100.084 77.9134C104.573 77.9134 108.225 81.5657 108.225 86.0554C108.225 90.5451 104.573 94.1973 100.084 94.1973ZM116.242 70.1472H114.113C112.939 70.1472 111.983 69.1919 111.983 68.0177V65.8881H116.242L116.242 70.1472Z" fill="black"/>
<path d="M33.9456 82.1711C31.8044 82.1711 30.0625 83.913 30.0625 86.0543C30.0625 88.1955 31.8044 89.9374 33.9456 89.9374C36.0869 89.9374 37.8287 88.1955 37.8287 86.0543C37.8287 83.913 36.0869 82.1711 33.9456 82.1711Z" fill="black"/>
<path d="M100.082 82.1711C97.9411 82.1711 96.1992 83.913 96.1992 86.0543C96.1992 88.1955 97.9411 89.9374 100.082 89.9374C102.224 89.9374 103.965 88.1955 103.965 86.0543C103.965 83.913 102.224 82.1711 100.082 82.1711Z" fill="black"/>
<path d="M78.038 74.1562H49.9796C48.942 74.1562 48.1006 74.9974 48.1006 76.0352C48.1006 77.0731 48.9418 77.9142 49.9796 77.9142H78.038C79.0756 77.9142 79.917 77.0731 79.917 76.0352C79.917 74.9974 79.0758 74.1562 78.038 74.1562Z" fill="black"/>
<path d="M29.937 66.1367H5.8868C4.84922 66.1367 4.00781 66.9779 4.00781 68.0157C4.00781 69.0535 4.84898 69.8947 5.8868 69.8947H29.937C30.9745 69.8947 31.8159 69.0535 31.8159 68.0157C31.8159 66.9779 30.9745 66.1367 29.937 66.1367Z" fill="black"/>
</svg>
