<svg width="127" height="52" viewBox="0 0 127 52" fill="none" xmlns="http://www.w3.org/2000/svg">
<path d="M74.1982 21H70.793L70.8145 18.4863H74.1982C75.0433 18.4863 75.7559 18.2965 76.3359 17.917C76.916 17.5303 77.3529 16.9681 77.6465 16.2305C77.9473 15.4928 78.0977 14.6012 78.0977 13.5557V12.793C78.0977 11.9909 78.0117 11.2855 77.8398 10.6768C77.6751 10.068 77.4281 9.55599 77.0986 9.14062C76.7692 8.72526 76.3646 8.41374 75.8848 8.20605C75.4049 7.99121 74.8535 7.88379 74.2305 7.88379H70.7285V5.35938H74.2305C75.276 5.35938 76.2321 5.53841 77.0986 5.89648C77.9723 6.2474 78.7279 6.75228 79.3652 7.41113C80.0026 8.06999 80.4932 8.85775 80.8369 9.77441C81.1878 10.6839 81.3633 11.6973 81.3633 12.8145V13.5557C81.3633 14.6657 81.1878 15.679 80.8369 16.5957C80.4932 17.5124 80.0026 18.3001 79.3652 18.959C78.735 19.6107 77.9795 20.1156 77.0986 20.4736C76.2249 20.8245 75.2581 21 74.1982 21ZM72.6191 5.35938V21H69.3965V5.35938H72.6191ZM88.8613 21.2148C87.959 21.2148 87.1497 21.0716 86.4336 20.7852C85.7174 20.4915 85.1087 20.0869 84.6074 19.5713C84.1133 19.0557 83.7337 18.4577 83.4688 17.7773C83.2038 17.0898 83.0713 16.3594 83.0713 15.5859V15.1562C83.0713 14.2754 83.1966 13.4697 83.4473 12.7393C83.6979 12.0088 84.056 11.375 84.5215 10.8379C84.9941 10.3008 85.5671 9.889 86.2402 9.60254C86.9134 9.30892 87.6725 9.16211 88.5176 9.16211C89.3411 9.16211 90.0716 9.29818 90.709 9.57031C91.3464 9.84245 91.8799 10.2292 92.3096 10.7305C92.7464 11.2318 93.0758 11.8333 93.2979 12.5352C93.5199 13.2298 93.6309 14.0033 93.6309 14.8555V16.1445H84.3926V14.082H90.5908V13.8457C90.5908 13.416 90.512 13.0329 90.3545 12.6963C90.2041 12.3525 89.9749 12.0804 89.667 11.8799C89.359 11.6794 88.9652 11.5791 88.4854 11.5791C88.0771 11.5791 87.7262 11.6686 87.4326 11.8477C87.139 12.0267 86.8991 12.2773 86.7129 12.5996C86.5339 12.9219 86.3978 13.3014 86.3047 13.7383C86.2188 14.168 86.1758 14.6406 86.1758 15.1562V15.5859C86.1758 16.0514 86.2402 16.4811 86.3691 16.875C86.5052 17.2689 86.695 17.609 86.9385 17.8955C87.1891 18.182 87.4899 18.404 87.8408 18.5615C88.1989 18.7191 88.6035 18.7979 89.0547 18.7979C89.6133 18.7979 90.1325 18.6904 90.6123 18.4756C91.0993 18.2536 91.5182 17.9206 91.8691 17.4766L93.373 19.1094C93.1296 19.4603 92.7965 19.7969 92.374 20.1191C91.9587 20.4414 91.4574 20.7064 90.8701 20.9141C90.2829 21.1146 89.6133 21.2148 88.8613 21.2148ZM98.4863 11.7832V21H95.3818V9.37695H98.293L98.4863 11.7832ZM98.0566 14.7803H97.1973C97.1973 13.971 97.2939 13.2262 97.4873 12.5459C97.6878 11.8584 97.9779 11.264 98.3574 10.7627C98.7441 10.2542 99.2204 9.86035 99.7861 9.58105C100.352 9.30176 101.007 9.16211 101.752 9.16211C102.268 9.16211 102.74 9.24089 103.17 9.39844C103.6 9.54883 103.968 9.78874 104.276 10.1182C104.591 10.4404 104.835 10.863 105.007 11.3857C105.179 11.9014 105.265 12.5208 105.265 13.2441V21H102.171V13.5879C102.171 13.0579 102.099 12.6497 101.956 12.3633C101.813 12.0768 101.609 11.8763 101.344 11.7617C101.086 11.6471 100.774 11.5898 100.409 11.5898C100.008 11.5898 99.6572 11.6722 99.3564 11.8369C99.0628 12.0016 98.8193 12.2308 98.626 12.5244C98.4326 12.8109 98.2894 13.1475 98.1963 13.5342C98.1032 13.9209 98.0566 14.3363 98.0566 14.7803ZM104.975 14.4258L103.868 14.5654C103.868 13.8063 103.961 13.1009 104.147 12.4492C104.341 11.7975 104.624 11.2246 104.996 10.7305C105.376 10.2363 105.845 9.85319 106.403 9.58105C106.962 9.30176 107.606 9.16211 108.337 9.16211C108.896 9.16211 109.404 9.24447 109.862 9.40918C110.321 9.56673 110.711 9.82096 111.033 10.1719C111.363 10.5156 111.613 10.9668 111.785 11.5254C111.964 12.084 112.054 12.7679 112.054 13.5771V21H108.949V13.5771C108.949 13.04 108.878 12.6318 108.734 12.3525C108.598 12.0661 108.398 11.8691 108.133 11.7617C107.875 11.6471 107.567 11.5898 107.209 11.5898C106.837 11.5898 106.511 11.665 106.231 11.8154C105.952 11.9587 105.719 12.1592 105.533 12.417C105.347 12.6748 105.207 12.9756 105.114 13.3193C105.021 13.6559 104.975 14.0247 104.975 14.4258ZM117.715 9.37695V21H114.61V9.37695H117.715ZM114.417 6.34766C114.417 5.89648 114.575 5.52409 114.89 5.23047C115.205 4.93685 115.627 4.79004 116.157 4.79004C116.68 4.79004 117.099 4.93685 117.414 5.23047C117.736 5.52409 117.897 5.89648 117.897 6.34766C117.897 6.79883 117.736 7.17122 117.414 7.46484C117.099 7.75846 116.68 7.90527 116.157 7.90527C115.627 7.90527 115.205 7.75846 114.89 7.46484C114.575 7.17122 114.417 6.79883 114.417 6.34766ZM81.2666 39.5664V45.1309C81.0876 45.3958 80.7796 45.6895 80.3428 46.0117C79.9059 46.334 79.3187 46.6169 78.5811 46.8604C77.8434 47.0967 76.9268 47.2148 75.8311 47.2148C74.9144 47.2148 74.0729 47.0501 73.3066 46.7207C72.5404 46.3913 71.8743 45.915 71.3086 45.292C70.75 44.6618 70.3167 43.9062 70.0088 43.0254C69.708 42.1445 69.5576 41.1562 69.5576 40.0605V38.1699C69.5576 37.0957 69.6973 36.1289 69.9766 35.2695C70.2559 34.403 70.6605 33.6618 71.1904 33.0459C71.7204 32.43 72.3577 31.9609 73.1025 31.6387C73.8545 31.3092 74.696 31.1445 75.627 31.1445C76.7871 31.1445 77.7646 31.3451 78.5596 31.7461C79.3545 32.1471 79.974 32.6986 80.418 33.4004C80.8691 34.0951 81.1484 34.8828 81.2559 35.7637H79.9346C79.8343 35.1406 79.6266 34.5677 79.3115 34.0449C78.9964 33.515 78.5381 33.0889 77.9365 32.7666C77.3421 32.4443 76.5723 32.2832 75.627 32.2832C74.8678 32.2832 74.1911 32.4229 73.5967 32.7021C73.0094 32.9814 72.5153 33.3789 72.1143 33.8945C71.7132 34.4102 71.4089 35.0296 71.2012 35.7529C70.9935 36.4691 70.8896 37.2676 70.8896 38.1484V40.0605C70.8896 40.9772 71.0042 41.8044 71.2334 42.542C71.4697 43.2796 71.8063 43.9134 72.2432 44.4434C72.68 44.9733 73.2028 45.3815 73.8115 45.668C74.4202 45.9473 75.097 46.0869 75.8418 46.0869C76.6367 46.0869 77.3135 46.0117 77.8721 45.8613C78.4307 45.7109 78.8783 45.5319 79.2148 45.3242C79.5586 45.1094 79.8057 44.9089 79.9561 44.7227V40.6943H75.7559V39.5664H81.2666ZM86.0254 37.2998V47H84.7471V35.377H85.9932L86.0254 37.2998ZM90.1396 35.291L90.1074 36.4727C89.9642 36.4512 89.8245 36.4333 89.6885 36.4189C89.5524 36.4046 89.4056 36.3975 89.248 36.3975C88.6895 36.3975 88.1989 36.5013 87.7764 36.709C87.361 36.9095 87.0101 37.1924 86.7236 37.5576C86.4372 37.9157 86.2188 38.3382 86.0684 38.8252C85.918 39.305 85.832 39.8206 85.8105 40.3721L85.3379 40.5547C85.3379 39.7956 85.4167 39.0902 85.5742 38.4385C85.7318 37.7868 85.9717 37.2174 86.2939 36.7305C86.6234 36.2363 87.0352 35.8532 87.5293 35.5811C88.0306 35.3018 88.6178 35.1621 89.291 35.1621C89.4557 35.1621 89.6169 35.1764 89.7744 35.2051C89.9391 35.2266 90.0609 35.2552 90.1396 35.291ZM91.2354 41.3711V41.0166C91.2354 40.1715 91.3571 39.391 91.6006 38.6748C91.8441 37.9587 92.1914 37.3392 92.6426 36.8164C93.1009 36.2936 93.6488 35.889 94.2861 35.6025C94.9235 35.3089 95.6325 35.1621 96.4131 35.1621C97.2008 35.1621 97.9134 35.3089 98.5508 35.6025C99.1882 35.889 99.736 36.2936 100.194 36.8164C100.653 37.3392 101.004 37.9587 101.247 38.6748C101.491 39.391 101.612 40.1715 101.612 41.0166V41.3711C101.612 42.2161 101.491 42.9967 101.247 43.7129C101.004 44.4219 100.653 45.0378 100.194 45.5605C99.7432 46.0833 99.1989 46.4915 98.5615 46.7852C97.9242 47.0716 97.2152 47.2148 96.4346 47.2148C95.6468 47.2148 94.9342 47.0716 94.2969 46.7852C93.6595 46.4915 93.1117 46.0833 92.6533 45.5605C92.195 45.0378 91.8441 44.4219 91.6006 43.7129C91.3571 42.9967 91.2354 42.2161 91.2354 41.3711ZM92.5137 41.0166V41.3711C92.5137 42.0085 92.5996 42.6136 92.7715 43.1865C92.9434 43.7523 93.194 44.2572 93.5234 44.7012C93.8529 45.138 94.2611 45.4818 94.748 45.7324C95.235 45.9831 95.7972 46.1084 96.4346 46.1084C97.0648 46.1084 97.6198 45.9831 98.0996 45.7324C98.5866 45.4818 98.9948 45.138 99.3242 44.7012C99.6536 44.2572 99.9007 43.7523 100.065 43.1865C100.237 42.6136 100.323 42.0085 100.323 41.3711V41.0166C100.323 40.3864 100.237 39.7884 100.065 39.2227C99.9007 38.6569 99.6501 38.152 99.3135 37.708C98.984 37.264 98.5758 36.9131 98.0889 36.6553C97.6019 36.3975 97.0433 36.2686 96.4131 36.2686C95.7829 36.2686 95.2243 36.3975 94.7373 36.6553C94.2575 36.9131 93.8493 37.264 93.5127 37.708C93.1833 38.152 92.9326 38.6569 92.7607 39.2227C92.596 39.7884 92.5137 40.3864 92.5137 41.0166ZM111.721 44.3145V35.377H113.01V47H111.774L111.721 44.3145ZM111.957 42.166L112.623 42.1445C112.623 42.875 112.537 43.5482 112.365 44.1641C112.193 44.7799 111.925 45.3171 111.56 45.7754C111.194 46.2337 110.722 46.5882 110.142 46.8389C109.562 47.0895 108.863 47.2148 108.047 47.2148C107.481 47.2148 106.962 47.1361 106.489 46.9785C106.024 46.8138 105.623 46.556 105.286 46.2051C104.95 45.8542 104.688 45.3994 104.502 44.8408C104.323 44.2822 104.233 43.6055 104.233 42.8105V35.377H105.512V42.832C105.512 43.4551 105.58 43.9743 105.716 44.3896C105.859 44.805 106.052 45.138 106.296 45.3887C106.547 45.6393 106.833 45.8184 107.155 45.9258C107.478 46.0332 107.825 46.0869 108.197 46.0869C109.143 46.0869 109.887 45.9043 110.432 45.5391C110.983 45.1738 111.373 44.694 111.603 44.0996C111.839 43.498 111.957 42.8535 111.957 42.166ZM117.64 37.6113V51.4688H116.351V35.377H117.554L117.64 37.6113ZM125.718 41.0811V41.3066C125.718 42.1732 125.618 42.9681 125.417 43.6914C125.216 44.4147 124.926 45.0413 124.547 45.5713C124.174 46.0941 123.713 46.4987 123.161 46.7852C122.61 47.0716 121.983 47.2148 121.281 47.2148C120.587 47.2148 119.967 47.1074 119.423 46.8926C118.879 46.6777 118.41 46.3734 118.016 45.9795C117.629 45.5785 117.317 45.113 117.081 44.583C116.852 44.0459 116.691 43.4587 116.598 42.8213V39.8457C116.705 39.1439 116.881 38.5065 117.124 37.9336C117.368 37.3607 117.679 36.8665 118.059 36.4512C118.445 36.0358 118.904 35.7171 119.434 35.4951C119.964 35.2731 120.569 35.1621 121.249 35.1621C121.958 35.1621 122.588 35.3018 123.14 35.5811C123.698 35.8532 124.167 36.2507 124.547 36.7734C124.934 37.2891 125.224 37.9121 125.417 38.6426C125.618 39.3659 125.718 40.1787 125.718 41.0811ZM124.429 41.3066V41.0811C124.429 40.4007 124.357 39.7705 124.214 39.1904C124.078 38.6104 123.867 38.1055 123.58 37.6758C123.301 37.2389 122.943 36.8988 122.506 36.6553C122.076 36.4118 121.564 36.29 120.97 36.29C120.354 36.29 119.827 36.3939 119.391 36.6016C118.961 36.8021 118.603 37.0706 118.316 37.4072C118.03 37.7367 117.804 38.0983 117.64 38.4922C117.475 38.8861 117.353 39.2728 117.274 39.6523V43.0791C117.41 43.6234 117.629 44.1283 117.93 44.5938C118.23 45.0521 118.632 45.4209 119.133 45.7002C119.641 45.9723 120.261 46.1084 120.991 46.1084C121.578 46.1084 122.087 45.9867 122.517 45.7432C122.946 45.4997 123.301 45.1595 123.58 44.7227C123.867 44.2858 124.078 43.7773 124.214 43.1973C124.357 42.6172 124.429 41.987 124.429 41.3066Z" fill="white"/>
<path d="M0 25.5715C0 23.9147 1.34315 22.5715 3 22.5715H24.4286C26.0854 22.5715 27.4286 23.9147 27.4286 25.5715V47.0001C27.4286 48.657 26.0854 50.0001 24.4286 50.0001H20.1429C18.486 50.0001 17.1429 48.657 17.1429 47.0001V35.8572C17.1429 34.2004 15.7997 32.8572 14.1429 32.8572H3C1.34315 32.8572 0 31.5141 0 29.8572V25.5715Z" fill="white"/>
<path d="M0 5C0 3.34315 1.34315 2 3 2H45C46.6569 2 48 3.34315 48 5V47C48 48.6569 46.6569 50 45 50H40.7143C39.0574 50 37.7143 48.6569 37.7143 47V15.2857C37.7143 13.6289 36.3711 12.2857 34.7143 12.2857H3C1.34315 12.2857 0 10.9426 0 9.28571V5Z" fill="white"/>
<rect y="43.1428" width="6.85714" height="6.85714" rx="2" fill="white"/>
</svg>
